<?xml version="1.0" encoding="UTF-8" standalone="no"?>
<!-- Created with Inkscape (http://www.inkscape.org/) -->

<svg
   width="100"
   height="100"
   viewBox="0 0 26.458333 26.458333"
   version="1.1"
   id="svg5"
   inkscape:export-filename="vtf-logo.png"
   inkscape:export-xdpi="96"
   inkscape:export-ydpi="96"
   inkscape:version="1.2.2 (732a01da63, 2022-12-09)"
   sodipodi:docname="vtf.svg"
   xmlns:inkscape="http://www.inkscape.org/namespaces/inkscape"
   xmlns:sodipodi="http://sodipodi.sourceforge.net/DTD/sodipodi-0.dtd"
   xmlns="http://www.w3.org/2000/svg"
   xmlns:svg="http://www.w3.org/2000/svg">
  <sodipodi:namedview
     id="namedview7"
     pagecolor="#505050"
     bordercolor="#eeeeee"
     borderopacity="1"
     inkscape:showpageshadow="0"
     inkscape:pageopacity="0"
     inkscape:pagecheckerboard="0"
     inkscape:deskcolor="#505050"
     inkscape:document-units="mm"
     showgrid="false"
     inkscape:zoom="6.7277216"
     inkscape:cx="52.469472"
     inkscape:cy="52.61811"
     inkscape:window-width="1500"
     inkscape:window-height="978"
     inkscape:window-x="-6"
     inkscape:window-y="-6"
     inkscape:window-maximized="1"
     inkscape:current-layer="layer1" />
  <defs
     id="defs2" />
  <g
     inkscape:label="图层 1"
     inkscape:groupmode="layer"
     id="layer1">
    <path
       id="rect234"
       style="display:inline;fill:#2b2a3a;fill-opacity:1;stroke:none;stroke-width:0.0717245"
       inkscape:label="边框"
       d="m 9.4150179,9.3274008 c 0.031321,0.016337 0.066359,0.026302 0.1042341,0.026302 l 18.391811,5.4e-6 c 0.125234,0 0.226125,-0.1010325 0.226125,-0.2262665 l -2.61e-4,-18.3888824 c 0,-0.072798 -0.03451,-0.136803 -0.08759,-0.1780067 l -0.440952,0.4440881 c 0.03975,0.054897 0.0639,0.1220377 0.0639,0.1952657 l -2.7e-5,17.3704863 c 0,0.184762 -0.148417,0.3333489 -0.333179,0.3333489 L 9.9711456,8.9037292 c -0.040459,0 -0.078613,-0.00807 -0.1144475,-0.02115 z"
       transform="matrix(0.70457369,0.70963083,-0.70958543,0.70461941,0,0)" />
    <path
       id="rect234-0"
       style="display:inline;fill:#3b437c;fill-opacity:1;stroke:none;stroke-width:0.0717245"
       inkscape:label="边框"
       d="m 13.279293,0.00310059 c -0.05778,-2.0476e-4 -0.115247,0.02150761 -0.15968,0.06562906 L 0.07079671,13.026078 c -0.06190048,0.06147 -0.07981477,0.149126 -0.05581055,0.22686 h 0.62683513 c -0.0566685,-0.123489 -0.035086,-0.273621 0.0671794,-0.375171 L 13.034863,0.63820394 c 0.06555,-0.0650933 0.150915,-0.0974541 0.236162,-0.0971517 0.08525,3.0209e-4 0.170038,0.0336623 0.235127,0.0992188 L 25.743132,12.964583 c 0.07845,0.07902 0.108463,0.186627 0.09198,0.288355 h 0.625801 c -0.006,-0.04786 -0.02673,-0.09418 -0.06356,-0.131258 L 13.438973,0.07027995 C 13.394853,0.02584504 13.337075,0.00330549 13.279293,0.00310059 Z M 0.01550293,13.253455 c 0.0048745,0.01563 0.01076543,0.03098 0.01912028,0.04547 -0.0081073,-0.01445 -0.01424628,-0.02992 -0.01912028,-0.04547 z m 26.44541407,10e-4 c 0.0018,0.01548 0.0019,0.031 5.17e-4,0.04651 0.0014,-0.01551 0.0013,-0.03103 -5.17e-4,-0.04651 z m -0.635103,0.03772 c -0.0015,0.0053 -0.0028,0.01077 -0.0047,0.01602 0.0018,-0.0053 0.0031,-0.01068 0.0047,-0.01602 z m -25.78860697,0.01085 c 0.0091005,0.01503 0.0196417,0.02932 0.03255615,0.04238 -0.01299042,-0.01309 -0.02364169,-0.02728 -0.03255615,-0.04238 z m 26.42370997,0.0026 c -0.0015,0.01355 -0.0043,0.02716 -0.0083,0.04031 0.004,-0.01326 0.0068,-0.02664 0.0083,-0.04031 z m -0.655257,0.03876 c -0.0024,0.0048 -0.0046,0.0097 -0.0072,0.01447 0.0026,-0.0048 0.0049,-0.0096 0.0072,-0.01447 z m 0.643888,0.01189 c -0.0045,0.01282 -0.01063,0.0252 -0.01757,0.03721 0.007,-0.01205 0.01296,-0.02432 0.01757,-0.03721 z m -0.67076,0.03566 c -0.0072,0.01012 -0.01584,0.01948 -0.02429,0.02894 0.0085,-0.0095 0.01713,-0.01878 0.02429,-0.02894 z m 0.649573,0.0088 c -0.0089,0.01421 -0.01958,0.02742 -0.03204,0.03979 0.01232,-0.01227 0.02314,-0.02573 0.03204,-0.03979 z m -0.03204,0.03979 -13.0483,12.957349 c -0.04443,0.04414 -0.102365,0.06632 -0.160196,0.06615 0.05783,1.76e-4 0.115765,-0.02149 0.160196,-0.06563 l 13.0483,-12.957349 c 9.5e-5,-9.5e-5 -9.6e-5,-4.22e-4 0,-5.17e-4 z M 13.187826,26.464018 c -0.04337,-1.32e-4 -0.08646,-0.01269 -0.124024,-0.03772 0.03757,0.02503 0.08065,0.03759 0.124024,0.03772 z m -0.124024,-0.03772 c -0.01252,-0.0083 -0.02463,-0.01835 -0.03566,-0.02946 v 5.17e-4 c 0.01103,0.01111 0.02313,0.0206 0.03566,0.02894 z" />
    <rect
       style="display:inline;fill:#303a5c;fill-opacity:1;stroke:none;stroke-width:0.0717245"
       id="rect234-2-2"
       width="18.034761"
       height="18.037376"
       x="9.6372366"
       y="-9.1336212"
       ry="0.33350611"
       transform="matrix(0.70457369,0.70963083,-0.70958543,0.70461941,0,0)"
       inkscape:label="表层" />
    <path
       id="rect6308"
       style="fill:#ffffff;fill-opacity:1;stroke:none;stroke-width:0.1"
       d="M 9.8706816 -8.8795314 L 9.870773 -3.1115698 L 14.354327 -3.1119279 L 14.354329 -3.1141203 L 13.479177 -3.1139528 L 13.479083 -8.8789911 L 9.8706816 -8.8795314 z M 9.8707803 -1.3967112 L 9.8707717 -0.011084929 L 14.354325 -0.011443024 L 14.354328 -0.013635468 L 13.479176 -0.01346789 L 13.479181 -1.3961709 L 9.8707803 -1.3967112 z M 9.871144 1.7041395 L 9.8709641 5.3172913 L 13.479533 1.7163728 L 13.479545 1.7046798 L 9.871144 1.7041395 z "
       transform="rotate(44.939202)" />
    <text
       xml:space="preserve"
       style="font-size:6.39264px;fill:#ffffff;fill-opacity:1;stroke:none;stroke-width:0.0906043"
       x="7.0770226"
       y="16.156765"
       id="text8668"
       transform="scale(1.0169009,0.98337999)"><tspan
         sodipodi:role="line"
         id="tspan8666"
         style="font-style:normal;font-variant:normal;font-weight:bold;font-stretch:normal;font-size:6.39264px;font-family:Arial;-inkscape-font-specification:'Arial Bold';stroke-width:0.0906043"
         x="7.0770226"
         y="16.156765">VTF</tspan></text>
  </g>
</svg>
